<svg id="Layer_3" data-name="Layer 3" xmlns="http://www.w3.org/2000/svg" viewBox="0 0 1545 1925"><defs><style>.cls-1{fill:#fff;}</style></defs><path class="cls-1" d="M899.19,841a22.63,22.63,0,0,1-1.59-18.17,55.86,55.86,0,0,0,2.83-17.64c0-30.51-24.3-55.24-54.28-55.24s-54.28,24.73-54.28,55.24c0,26.58,18.45,48.78,43,54a20.94,20.94,0,0,1,13.91,10.23l63.54,113.16a22.26,22.26,0,0,1-.06,21.81l-60.6,106.37a20.09,20.09,0,0,1-35.13.29L631.93,798a22.24,22.24,0,0,1,0-22.49L821.56,454a20.1,20.1,0,0,1,35,0l181.33,307.48a22.27,22.27,0,0,1,.17,22.21l-68.36,120a20.11,20.11,0,0,1-35.37-.12Zm430.55-434.51-.83-.25a64.47,64.47,0,0,0-17.34-2.5c-35.92.28-64.94,30-64.94,66.62q0,3,.25,5.9a67.08,67.08,0,0,0,9.55,29.18,22.32,22.32,0,0,1,.35,22.86L1176.16,665a20.09,20.09,0,0,1-35,0L766.71,27.89v.67L301.13,818a22.09,22.09,0,0,0-3.05,11.66L300.68,972a22.15,22.15,0,0,1-3.05,11.65l-56.54,95.91v-.31l2-535a21.44,21.44,0,0,1,9-17.64,66.86,66.86,0,0,0,28.78-55.19c0-37.15-29.86-67.19-66.49-66.61a65,65,0,0,0-48.67,23.39,67.26,67.26,0,0,0,6.44,93.24,21.78,21.78,0,0,1,7.12,16.22V1233c0,21.61,27.16,29.65,38,11.25L366.78,991.05v-.36l-1-138.45a22.2,22.2,0,0,1,3.05-11.41L743.26,206.07a20.09,20.09,0,0,1,34.9-.12l23.31,38.92-.26.45L482.76,787.57a22.25,22.25,0,0,0,0,22.47L681,1145.32c4.82,8.15-.76,18.66-9.93,18.71l-43.33.25a20.33,20.33,0,0,1-17.31-9.72L509,992.38a22.09,22.09,0,0,1-.72-22.39c4.29-7.59,5.15-15.16,5.15-27.44,0-37.84-31-68.32-68.56-66.55a62.89,62.89,0,0,0-11.38,1.58c-.79.18-1.59.37-2.38.6-26.94,7.34-47.2,31.9-48.53,61.2a67.68,67.68,0,0,0,2.24,20.75c6.79,25.4,28,44.75,54.13,48.42a20.49,20.49,0,0,1,14.5,9.85l115.31,189.26a20.38,20.38,0,0,0,17.38,9.94l189.08-.47c16,0,25.85-18.42,17.44-32.69L564.75,798a22.24,22.24,0,0,1,0-22.49L821.56,340a20.1,20.1,0,0,1,35,0l248.22,420.9a22.25,22.25,0,0,1,.16,22.21L991.16,982.84a22.26,22.26,0,0,0-.07,21.81l23.89,42.53a20.36,20.36,0,0,0,17.71,10.6h130.82a20.17,20.17,0,0,0,15.27-7.11,53.76,53.76,0,0,1,40.8-18.81c30.69,0,55.43,25.92,54.24,57.43-1.09,28.67-24.09,52-52.26,53a53.67,53.67,0,0,1-42.79-18.8,20.18,20.18,0,0,0-15.25-7.09H999.26a20.39,20.39,0,0,1-17.72-10.6l-21.9-39a9.25,9.25,0,0,0-16.27-.06l-67.16,117.89c-8.14,14.29,1.72,32.41,17.65,32.41h428.6c11.34,0,20.53-9.6,20.53-21.45V540.09a21.81,21.81,0,0,1,8.2-17.13,66.92,66.92,0,0,0,25.32-52.63C1376.51,440.14,1356.79,414.64,1329.74,406.46Z"/><path class="cls-1" d="M263.6,1572.81H197.53l-63.09-79-31.92,36v43.08H35.71V1412.15l-15.59-13.28v-52.8h82.4v105l89.44-105h65.33L169,1452Z"/><path class="cls-1" d="M387.93,1572.81h-79.8v-52.47l15.59-13.93V1346.07h64.21Z"/><path class="cls-1" d="M678.17,1572.81H470.32V1412.15l-15.58-13.61v-52.47h82.39V1522H650.34Z"/><path class="cls-1" d="M939.83,1572.81H732V1412.15l-15.59-13.61v-52.47h82.39V1522H912Z"/><path class="cls-1" d="M1213.37,1572.81H993.65v-161l-15.59-13.28v-52.47h207.48l27.83,50.85H1060.46v124.71h125.08Zm-20.78-88.1h-128l28.58-50.54h71.26Z"/><path class="cls-1" d="M1506.59,1572.81h-76.83l-43.43-76.12h-30.81l28.21-50.85h21.16q13.72,0,23.2-6.32t9.46-18.3q0-12-9.46-18.14t-23.2-6.16h-52.71v175.89h-83.13V1520l16-13.28V1346.07h130.27q29,0,49,10t30.63,27.21a71.44,71.44,0,0,1,10.57,38.22q0,19.77-7.79,33.53a69.18,69.18,0,0,1-19.67,22.35,78,78,0,0,1-24.5,12.14Z"/><path class="cls-1" d="M247.29,1828.15A86.84,86.84,0,0,1,219,1862.76l32.74,34.74H237.66l-27.61-29.42q-22.8,12-52.33,12.05-30.83,0-53.3-12.47a84.85,84.85,0,0,1-34.51-35.16q-12-22.71-12-53.24t12-53.38a83.56,83.56,0,0,1,34.67-35.16q22.64-12.33,53.14-12.33t53,12.33a83.82,83.82,0,0,1,34.51,35.16q12,22.84,12,53.38Q257.24,1806.73,247.29,1828.15Zm-44.95,32.08-52-55.19h14.13l46.87,49.59a78.14,78.14,0,0,0,25.85-31.1q9.15-19.33,9.15-44.55,0-27.46-10.92-48a77,77,0,0,0-31-31.81q-20.07-11.19-46.71-11.2t-46.88,11.2a76.63,76.63,0,0,0-31.14,31.81q-10.92,20.6-10.92,48,0,27.74,10.92,48.33a76.49,76.49,0,0,0,31.14,31.8q20.23,11.22,46.88,11.21Q182.76,1870.32,202.34,1860.23Z"/><path class="cls-1" d="M544.91,1878.73h-13.1v-39H529.5q-8.87,17.49-27.55,29.76t-46,12.27q-24.27,0-42.19-10.08A70.28,70.28,0,0,1,386,1843.59q-9.83-18-9.83-41.19V1702.21h13.1V1802.4q0,33,20,49.6t50.09,16.64q20.81,0,37.37-8.24a62,62,0,0,0,25.81-23.2q9.26-15,9.25-34.8V1702.21h13.1Z"/><path class="cls-1" d="M718.86,1867.13q-21-13.29-31.21-34.47a100.92,100.92,0,0,1-10.21-44.38,99.17,99.17,0,0,1,10.4-44.55,83.91,83.91,0,0,1,31.21-34.13q20.81-13.11,50.86-13.11,39.29,0,63,23.87T856.59,1789v3.37H691.7v2.35a71.9,71.9,0,0,0,9.82,36.31,74.66,74.66,0,0,0,27.55,27.57Q746.79,1869,769.91,1869q25,0,43-11.27A69.42,69.42,0,0,0,839.64,1827h13.48q-8.48,22.86-29.28,38.16t-53.93,15.3Q739.85,1880.41,718.86,1867.13Zm123.48-85.57q-2.33-39.35-21.77-56.32t-50.66-17q-34.68,0-55.29,20.51t-22.54,52.79Z"/><path class="cls-1" d="M1022.83,1867.13q-21-13.29-31.21-34.47a100.92,100.92,0,0,1-10.21-44.38,99.05,99.05,0,0,1,10.41-44.55,83.81,83.81,0,0,1,31.2-34.13q20.81-13.11,50.86-13.11,39.3,0,63,23.87t23.69,68.59v3.37H995.67v2.35a71.9,71.9,0,0,0,9.82,36.31,74.66,74.66,0,0,0,27.55,27.57q17.71,10.42,40.84,10.43,25,0,42.95-11.27a69.42,69.42,0,0,0,26.78-30.76h13.49q-8.49,22.86-29.29,38.16t-53.93,15.3Q1043.82,1880.41,1022.83,1867.13Zm123.48-85.57q-2.31-39.35-21.77-56.32t-50.66-17q-34.68,0-55.29,20.51t-22.54,52.79Z"/><path class="cls-1" d="M1296.94,1702.21H1310v36.31h2.7q8.85-17.48,27.93-29.76t47.2-12.27q24.64,0,43.15,10.09a70.69,70.69,0,0,1,28.51,28.07q10,18,10,41.19v102.89h-13.1V1775.84q0-32.94-20.61-49.59t-51.43-16.65q-21.59,0-38.53,8.24a63,63,0,0,0-26.39,23.2q-9.45,15-9.44,34.8v102.89h-13.1Z"/></svg>