<svg id="Layer_3" data-name="Layer 3" xmlns="http://www.w3.org/2000/svg" xmlns:xlink="http://www.w3.org/1999/xlink" viewBox="0 0 1920 742"><defs><style>.cls-1{fill:url(#New_Gradient_Swatch);}.cls-2{fill:#010101;}</style><linearGradient id="New_Gradient_Swatch" x1="43.62" y1="170.82" x2="1876" y2="170.82" gradientUnits="userSpaceOnUse"><stop offset="0.1" stop-color="#313866"/><stop offset="0.21" stop-color="#363966"/><stop offset="0.36" stop-color="#463c64"/><stop offset="0.52" stop-color="#5f4163"/><stop offset="0.69" stop-color="#834960"/><stop offset="0.87" stop-color="#b0525d"/><stop offset="1" stop-color="#d4595a"/></linearGradient></defs><path class="cls-1" d="M343.76,310.57H262.32l-77.78-97.42-39.35,44.32v53.1H62.83v-198L43.62,96.15V31.07H145.19V160.44L255.45,31.07H336L227.09,161.64Zm153.26,0H398.65V245.89l19.22-17.17V31.07H497Zm357.79,0H598.59v-198L579.38,95.76V31.07H681V247.89H820.49Zm322.55,0H921.14v-198L901.93,95.76V31.07H1003.5V247.89h139.55Zm337.19,0H1243.7V112.13l-19.22-16.37V31.07h255.76l34.31,62.69h-188.5V247.49h154.19ZM1488.93,202H1331.08l35.23-62.29h87.85ZM1876,310.57h-94.71l-53.53-93.83h-38l34.77-62.69h26.08q16.92,0,28.59-7.78t11.67-22.56q0-14.77-11.67-22.36t-28.59-7.59h-65V310.57H1583.18V245.49l19.68-16.37v-198h160.59q35.68,0,60.39,12.38T1861.59,77a88,88,0,0,1,13,47.11q0,24.36-9.61,41.33A85.12,85.12,0,0,1,1840.77,193a96.17,96.17,0,0,1-30.2,15Z"/><path class="cls-2" d="M323.65,625.34A107,107,0,0,1,288.83,668l40.37,42.83H311.78l-34-36.26q-28.11,14.85-64.51,14.85-38,0-65.7-15.37A104.74,104.74,0,0,1,105,630.69q-14.83-28-14.84-65.62T105,499.27a103.07,103.07,0,0,1,42.75-43.35q27.9-15.19,65.5-15.2t65.3,15.2a103.39,103.39,0,0,1,42.54,43.35q14.85,28.15,14.84,65.8Q335.92,598.92,323.65,625.34Zm-55.4,39.55-64.12-68h17.42L279.33,658a96.44,96.44,0,0,0,31.86-38.34q11.28-23.83,11.28-54.92,0-33.84-13.46-59.23a94.77,94.77,0,0,0-38.19-39.21q-24.73-13.8-57.58-13.81t-57.79,13.81a94.46,94.46,0,0,0-38.39,39.21q-13.45,25.38-13.45,59.23,0,34.2,13.45,59.58a94.32,94.32,0,0,0,38.39,39.2q24.95,13.83,57.79,13.82Q244.11,677.32,268.25,664.89Z"/><path class="cls-2" d="M690.53,687.68H674.38V639.6h-2.85q-10.92,21.55-33.95,36.68t-56.76,15.13q-29.91,0-52-12.43a86.65,86.65,0,0,1-34.19-34.61q-12.12-22.17-12.11-50.77V470.08h16.14V593.6q0,40.62,24.7,61.13t61.74,20.52q25.65,0,46.07-10.16A76.56,76.56,0,0,0,663,636.49q11.4-18.43,11.39-42.89V470.08h16.15Z"/><path class="cls-2" d="M905,673.38Q879.07,657,866.49,630.9a124.52,124.52,0,0,1-12.58-54.71,122.17,122.17,0,0,1,12.82-54.92q12.82-25.9,38.47-42.07T967.89,463q48.43,0,77.65,29.42t29.2,84.56v4.14H871.48v2.9a88.65,88.65,0,0,0,12.11,44.77,92.07,92.07,0,0,0,33.95,34q21.84,12.86,50.35,12.85,30.86,0,53-13.88a85.75,85.75,0,0,0,33-37.93h16.62q-10.46,28.2-36.09,47t-66.49,18.86Q930.84,689.75,905,673.38ZM1057.17,567.9q-2.85-48.49-26.83-69.43t-62.45-20.93q-42.75,0-68.15,25.29T872,567.9Z"/><path class="cls-2" d="M1279.67,673.38Q1253.78,657,1241.2,630.9a124.53,124.53,0,0,1-12.59-54.71,122.18,122.18,0,0,1,12.83-54.92q12.82-25.9,38.47-42.07T1342.6,463q48.44,0,77.65,29.42t29.2,84.56v4.14H1246.19v2.9a88.65,88.65,0,0,0,12.11,44.77,92.07,92.07,0,0,0,34,34q21.84,12.86,50.35,12.85,30.86,0,53-13.88a85.75,85.75,0,0,0,33-37.93h16.62q-10.46,28.2-36.09,47t-66.49,18.86Q1305.55,689.75,1279.67,673.38ZM1431.88,567.9q-2.85-48.49-26.83-69.43t-62.45-20.93q-42.75,0-68.16,25.29t-27.78,65.07Z"/><path class="cls-2" d="M1617.57,470.08h16.15v44.77H1637q10.92-21.56,34.43-36.69T1729.65,463q30.39,0,53.2,12.43A87.13,87.13,0,0,1,1818,510.08q12.35,22.17,12.35,50.77V687.68h-16.15V560.85q0-40.61-25.41-61.13t-63.4-20.52q-26.61,0-47.49,10.16T1645.35,518q-11.64,18.45-11.63,42.9V687.68h-16.15Z"/></svg>