<svg id="Layer_3" data-name="Layer 3" xmlns="http://www.w3.org/2000/svg" xmlns:xlink="http://www.w3.org/1999/xlink" viewBox="0 0 1925 1925"><defs><style>.cls-1{fill:url(#New_Gradient_Swatch);}</style><linearGradient id="New_Gradient_Swatch" x1="175.37" y1="594.5" x2="1645.6" y2="1829.33" gradientUnits="userSpaceOnUse"><stop offset="0.1" stop-color="#313866"/><stop offset="0.21" stop-color="#363966"/><stop offset="0.36" stop-color="#463c64"/><stop offset="0.52" stop-color="#5f4163"/><stop offset="0.69" stop-color="#834960"/><stop offset="0.87" stop-color="#b0525d"/><stop offset="1" stop-color="#d4595a"/></linearGradient></defs><path class="cls-1" d="M1175.81,1275.07a35.45,35.45,0,0,1-2.48-28.44,87.85,87.85,0,0,0,4.43-27.62c0-47.76-38-86.47-85-86.47s-85,38.71-85,86.47c0,41.61,28.88,76.36,67.35,84.6a32.74,32.74,0,0,1,21.77,16l99.47,177.14a34.83,34.83,0,0,1-.1,34.14l-94.85,166.52c-12.35,21.68-42.34,21.92-55,.44l-289-490.06a34.85,34.85,0,0,1,0-35.2L1054.3,669.26c12.56-21.29,42.2-21.29,54.75,0l283.86,481.32a34.83,34.83,0,0,1,.25,34.76l-107,187.84c-12.51,22-43,21.85-55.36-.19Zm674-680.16c-.43-.15-.87-.27-1.31-.4a100.5,100.5,0,0,0-27.14-3.91c-56.22.44-101.66,47-101.66,104.27,0,3.12.14,6.21.4,9.25a105.06,105.06,0,0,0,15,45.68,34.9,34.9,0,0,1,.54,35.78l-126.19,214c-12.57,21.31-42.24,21.28-54.78,0L968.45,2.3V3.35L239.63,1239.08a34.78,34.78,0,0,0-4.77,18.24l4.07,222.81a34.71,34.71,0,0,1-4.76,18.23l-88.52,150.13V1648l3.21-837.47c0-11.06,5.21-21.51,14-27.61A104.69,104.69,0,0,0,208,696.54c0-58.15-46.75-105.17-104.08-104.27a101.7,101.7,0,0,0-76.2,36.61,105.33,105.33,0,0,0,10.09,146,34.09,34.09,0,0,1,11.15,25.39V1888.67c0,33.83,42.5,46.41,59.51,17.61l234-396.28v-.57l-1.57-216.72a34.72,34.72,0,0,1,4.77-17.86L931.74,281.22c12.5-21.2,42-21.3,54.63-.19L1022.85,342l-.41.7L524,1191.47a34.82,34.82,0,0,0,.06,35.18l310.28,524.83c7.54,12.75-1.2,29.21-15.55,29.29l-67.82.39a31.84,31.84,0,0,1-27.1-15.21L565,1512.07a34.56,34.56,0,0,1-1.12-35c6.71-11.88,8.06-23.74,8.06-43,0-59.23-48.53-106.94-107.33-104.17a98.73,98.73,0,0,0-17.8,2.47c-1.25.29-2.49.59-3.72.94-42.18,11.49-73.9,49.94-76,95.81a106.09,106.09,0,0,0,3.5,32.47c10.64,39.77,43.85,70.06,84.75,75.79a32.13,32.13,0,0,1,22.7,15.43l180.5,296.26a31.83,31.83,0,0,0,27.2,15.55l296-.73c25.12-.06,40.47-28.84,27.3-51.17L652.29,1207.79a34.83,34.83,0,0,1,0-35.2l402-681.68c12.56-21.28,42.2-21.28,54.75,0l388.56,658.87a34.85,34.85,0,0,1,.26,34.76l-178.09,312.61a34.83,34.83,0,0,0-.1,34.14l37.38,66.57a31.93,31.93,0,0,0,27.74,16.59h204.78a31.56,31.56,0,0,0,23.89-11.12,84.14,84.14,0,0,1,63.88-29.46c48,0,86.77,40.58,84.9,89.91-1.71,44.87-37.71,81.38-81.8,83a84.16,84.16,0,0,1-67-29.43,31.5,31.5,0,0,0-23.86-11.1H1332.46a31.92,31.92,0,0,1-27.73-16.59l-34.29-61.07a14.48,14.48,0,0,0-25.47-.09L1139.84,1813c-12.74,22.37,2.7,50.73,27.63,50.73h670.91c17.76,0,32.15-15,32.15-33.57V804.07a34.15,34.15,0,0,1,12.83-26.81A104.77,104.77,0,0,0,1923,694.87C1923,647.62,1892.12,607.71,1849.79,594.91Z"/></svg>